# xmcd
#
# Track frame offsets:
#  150
#  15525
#  35543
#  66685
#  76100
#  89667
#  105302
#  120734
#  142564
#  155005
#  170606
#  198281
#  218918
#  229028
#  246577
#  271312
#  280709
#  305826
#  332183
#  345267
#
# Disc length: 4780 seconds
#
# Revision: 0
# Processed by: cddbd v1.4PL0 Copyright (c) Steve Scherf et al.
# Submitted via: AltoMP3_Maker 3.0
#
DISCID=1e12aa14
DTITLE=Chig - Best I
DYEAR=1900
DGENRE=
TTITLE0=Poxod
TTITLE1=Vot pulya prosvistela
TTITLE2=Perekrestok
TTITLE3=Lyubitel gidkosti
TTITLE4=Ne ko mne
TTITLE5=Veter
TTITLE6=Soldat na privale
TTITLE7=O.K.
TTITLE8=Serenada
TTITLE9=Pastoral'
TTITLE10=Polonez
TTITLE11=O lubvi
TTITLE12=Myshka
TTITLE13=Stil life
TTITLE14=Drakony strastey
TTITLE15=Dveri
TTITLE16=Sen semilia
TTITLE17=Takiye dela
TTITLE18=Vechnaya molodost
TTITLE19=My letim na svet
EXTD=
EXTT0=
EXTT1=
EXTT2=
EXTT3=
EXTT4=
EXTT5=
EXTT6=
EXTT7=
EXTT8=
EXTT9=
EXTT10=
EXTT11=
EXTT12=
EXTT13=
EXTT14=
EXTT15=
EXTT16=
EXTT17=
EXTT18=
EXTT19=
PLAYORDER=
